<svg width="80" height="80" viewBox="0 0 80 80" fill="none" xmlns="http://www.w3.org/2000/svg">
  <path d="M29.0544 17.2712C35.9714 13.9402 44.0288 13.9402 50.9457 17.2712C57.8627 20.6022 62.8863 26.9018 64.5947 34.3865C66.303 41.8713 64.5101 49.7266 59.7234 55.7289C54.9367 61.7312 47.6773 65.2272 40.0001 65.2272C32.3228 65.2272 25.0634 61.7312 20.2767 55.7289C15.49 49.7266 13.6971 41.8713 15.4054 34.3865C17.1138 26.9018 22.1375 20.6022 29.0544 17.2712Z" fill="#F2C94C" />
  <path d="M29.3934 52.3934C30.7863 51.0005 32.4399 49.8956 34.2597 49.1418C36.0796 48.388 38.0302 48 40 48C41.9698 48 43.9204 48.388 45.7403 49.1418C47.5601 49.8956 49.2137 51.0005 50.6066 52.3934" stroke="#333333" stroke-width="4" stroke-linecap="round" stroke-linejoin="round" />
  <circle cx="31" cy="34" r="2" stroke="#4F4F4F" stroke-width="4" stroke-linecap="round" stroke-linejoin="round" />
  <circle cx="49" cy="34" r="2" stroke="#4F4F4F" stroke-width="4" stroke-linecap="round" stroke-linejoin="round" />
</svg>